<svg width="200" height="200" viewBox="0 0 200 200" fill="none" xmlns="http://www.w3.org/2000/svg">
<mask id="mask0_2_28" style="mask-type:alpha" maskUnits="userSpaceOnUse" x="0" y="0" width="200" height="200">
<rect width="200" height="200" rx="40" fill="#C4C4C4"/>
</mask>
<g mask="url(#mask0_2_28)">
<rect width="200" height="40" fill="#002590"/>
<rect y="160" width="200" height="40" fill="#002590"/>
<rect y="120" width="200" height="40" fill="white"/>
<rect y="80" width="200" height="40" fill="#002590"/>
<rect y="40" width="200" height="40" fill="white"/>
<rect x="-183" y="100.421" width="200" height="200" rx="45" transform="rotate(-45 -183 100.421)" fill="#CC0D0D"/>
<path d="M35.1468 83.7811C36.0449 81.0172 39.9551 81.0172 40.8532 83.7812L42.9393 90.2016C43.3409 91.4377 44.4928 92.2746 45.7925 92.2746H52.5434C55.4495 92.2746 56.6579 95.9934 54.3067 97.7016L48.8451 101.67C47.7937 102.434 47.3537 103.788 47.7553 105.024L49.8415 111.444C50.7395 114.208 47.5761 116.507 45.2249 114.798L39.7634 110.83C38.7119 110.066 37.2881 110.066 36.2366 110.83L30.7751 114.798C28.4239 116.507 25.2605 114.208 26.1585 111.444L28.2447 105.024C28.6463 103.788 28.2063 102.434 27.1549 101.67L21.6933 97.7016C19.3421 95.9934 20.5505 92.2746 23.4566 92.2746H30.2075C31.5072 92.2746 32.6591 91.4377 33.0607 90.2016L35.1468 83.7811Z" fill="white"/>
</g>
</svg>
