<svg width="200" height="200" viewBox="0 0 200 200" fill="none" xmlns="http://www.w3.org/2000/svg">
<mask id="mask0_2_39" style="mask-type:alpha" maskUnits="userSpaceOnUse" x="0" y="0" width="200" height="200">
<rect width="200" height="200" rx="40" fill="#C4C4C4"/>
</mask>
<g mask="url(#mask0_2_39)">
<rect width="200" height="40" fill="#002590"/>
<rect y="160" width="200" height="40" fill="#002590"/>
<rect y="120" width="200" height="40" fill="white"/>
<rect y="80" width="200" height="40" fill="#002590"/>
<rect y="40" width="200" height="40" fill="white"/>
<rect x="38" y="100.276" width="88.072" height="87.2904" rx="25" transform="rotate(-45 38 100.276)" fill="#CC0D0D"/>
<path d="M97.1468 83.7811C98.0449 81.0172 101.955 81.0172 102.853 83.7812L104.939 90.2016C105.341 91.4377 106.493 92.2746 107.792 92.2746H114.543C117.45 92.2746 118.658 95.9934 116.307 97.7016L110.845 101.67C109.794 102.434 109.354 103.788 109.755 105.024L111.841 111.444C112.74 114.208 109.576 116.507 107.225 114.798L101.763 110.83C100.712 110.066 99.2881 110.066 98.2366 110.83L92.7751 114.798C90.4239 116.507 87.2605 114.208 88.1585 111.444L90.2447 105.024C90.6463 103.788 90.2063 102.434 89.1549 101.67L83.6933 97.7016C81.3421 95.9934 82.5505 92.2746 85.4566 92.2746H92.2075C93.5072 92.2746 94.6591 91.4377 95.0607 90.2016L97.1468 83.7811Z" fill="white"/>
</g>
</svg>
