<svg width="200" height="200" viewBox="0 0 200 200" fill="none" xmlns="http://www.w3.org/2000/svg">
<mask id="mask0_2_48" style="mask-type:alpha" maskUnits="userSpaceOnUse" x="0" y="0" width="200" height="200">
<rect width="200" height="200" rx="40" fill="#C4C4C4"/>
</mask>
<g mask="url(#mask0_2_48)">
<rect width="200" height="40" fill="#002590"/>
<rect y="160" width="200" height="40" fill="#002590"/>
<rect y="120" width="200" height="40" fill="white"/>
<rect y="80" width="200" height="40" fill="#002590"/>
<rect y="40" width="200" height="40" fill="white"/>
<rect x="-153" y="0.710663" width="217.38" height="216.784" rx="45" transform="rotate(-45 -153 0.710663)" fill="#CC0D0D"/>
<path d="M45.1468 30.7811C46.0449 28.0172 49.9551 28.0172 50.8532 30.7812L52.9393 37.2016C53.3409 38.4377 54.4928 39.2746 55.7925 39.2746H62.5434C65.4495 39.2746 66.6579 42.9934 64.3067 44.7016L58.8451 48.6697C57.7937 49.4336 57.3537 50.7877 57.7553 52.0238L59.8415 58.4443C60.7395 61.2082 57.5761 63.5066 55.2249 61.7984L49.7634 57.8303C48.7119 57.0664 47.2881 57.0664 46.2366 57.8303L40.7751 61.7984C38.4239 63.5066 35.2605 61.2082 36.1585 58.4443L38.2447 52.0238C38.6463 50.7877 38.2063 49.4336 37.1549 48.6697L31.6933 44.7016C29.3421 42.9934 30.5505 39.2746 33.4566 39.2746H40.2075C41.5072 39.2746 42.6591 38.4377 43.0607 37.2016L45.1468 30.7811Z" fill="white"/>
</g>
</svg>
