<svg width="200" height="200" viewBox="0 0 200 200" fill="none" xmlns="http://www.w3.org/2000/svg">
<mask id="mask0_2_30" style="mask-type:alpha" maskUnits="userSpaceOnUse" x="0" y="0" width="200" height="200">
<rect width="200" height="200" rx="40" fill="#C4C4C4"/>
</mask>
<g mask="url(#mask0_2_30)">
<rect width="200" height="40" fill="#002590"/>
<rect y="160" width="200" height="40" fill="#002590"/>
<rect y="120" width="200" height="40" fill="white"/>
<rect y="80" width="200" height="40" fill="#002590"/>
<rect y="40" width="200" height="40" fill="white"/>
<rect x="-143" y="100.421" width="200" height="200" rx="45" transform="rotate(-45 -143 100.421)" fill="#CC0D0D"/>
<path d="M53.1468 83.7811C54.0449 81.0172 57.9551 81.0172 58.8532 83.7812L60.9393 90.2016C61.3409 91.4377 62.4928 92.2746 63.7925 92.2746H70.5434C73.4495 92.2746 74.6579 95.9934 72.3067 97.7016L66.8451 101.67C65.7937 102.434 65.3537 103.788 65.7553 105.024L67.8415 111.444C68.7395 114.208 65.5761 116.507 63.2249 114.798L57.7634 110.83C56.7119 110.066 55.2881 110.066 54.2366 110.83L48.7751 114.798C46.4239 116.507 43.2605 114.208 44.1585 111.444L46.2447 105.024C46.6463 103.788 46.2063 102.434 45.1549 101.67L39.6933 97.7016C37.3421 95.9934 38.5505 92.2746 41.4566 92.2746H48.2075C49.5072 92.2746 50.6591 91.4377 51.0607 90.2016L53.1468 83.7811Z" fill="white"/>
</g>
</svg>
