<svg width="399" height="200" viewBox="0 0 399 200" fill="none" xmlns="http://www.w3.org/2000/svg">
<mask id="mask0_107_83" style="mask-type:alpha" maskUnits="userSpaceOnUse" x="0" y="0" width="200" height="200">
<rect width="200" height="200" rx="40" fill="#C4C4C4"/>
</mask>
<g mask="url(#mask0_107_83)">
<rect width="200" height="40" fill="#002590"/>
<rect y="160" width="200" height="40" fill="#002590"/>
<rect y="120" width="200" height="40" fill="white"/>
<rect y="80" width="200" height="40" fill="#002590"/>
<rect y="40" width="200" height="40" fill="white"/>
<rect x="-143" y="100.421" width="200" height="200" rx="45" transform="rotate(-45 -143 100.421)" fill="#CC0D0D"/>
<path d="M53.1468 83.7811C54.0449 81.0172 57.9551 81.0172 58.8532 83.7812L60.9393 90.2016C61.3409 91.4377 62.4928 92.2746 63.7925 92.2746H70.5434C73.4495 92.2746 74.6579 95.9934 72.3067 97.7016L66.8451 101.67C65.7937 102.434 65.3537 103.788 65.7553 105.024L67.8415 111.444C68.7395 114.208 65.5761 116.507 63.2249 114.798L57.7634 110.83C56.7119 110.066 55.2881 110.066 54.2366 110.83L48.7751 114.798C46.4239 116.507 43.2605 114.208 44.1585 111.444L46.2447 105.024C46.6463 103.788 46.2063 102.434 45.1549 101.67L39.6933 97.7016C37.3421 95.9934 38.5505 92.2746 41.4566 92.2746H48.2075C49.5072 92.2746 50.6591 91.4377 51.0607 90.2016L53.1468 83.7811Z" fill="white"/>
</g>
<path d="M254.291 66.4912H264.511C264.306 69.8408 263.383 72.8145 261.742 75.4121C260.124 78.0098 257.857 80.0378 254.94 81.4961C252.047 82.9544 248.56 83.6836 244.481 83.6836C241.291 83.6836 238.432 83.1367 235.902 82.043C233.373 80.9264 231.208 79.3314 229.408 77.2578C227.631 75.1842 226.275 72.6777 225.341 69.7383C224.407 66.7988 223.939 63.5062 223.939 59.8604V56.4082C223.939 52.7624 224.418 49.4697 225.375 46.5303C226.355 43.568 227.745 41.0501 229.545 38.9766C231.368 36.903 233.544 35.3079 236.073 34.1914C238.603 33.0749 241.428 32.5166 244.55 32.5166C248.697 32.5166 252.195 33.2686 255.043 34.7725C257.914 36.2764 260.136 38.3499 261.708 40.9932C263.303 43.6364 264.26 46.6442 264.579 50.0166H254.325C254.211 48.0114 253.812 46.3138 253.129 44.9238C252.445 43.5111 251.409 42.4515 250.019 41.7451C248.651 41.016 246.828 40.6514 244.55 40.6514C242.841 40.6514 241.348 40.9704 240.072 41.6084C238.796 42.2464 237.725 43.2148 236.859 44.5137C235.993 45.8125 235.344 47.4531 234.911 49.4355C234.501 51.3952 234.296 53.6966 234.296 56.3398V59.8604C234.296 62.4352 234.49 64.7025 234.877 66.6621C235.264 68.599 235.857 70.2396 236.654 71.584C237.475 72.9056 238.523 73.9082 239.799 74.5918C241.098 75.2526 242.659 75.583 244.481 75.583C246.623 75.583 248.389 75.2412 249.779 74.5576C251.169 73.874 252.229 72.86 252.958 71.5156C253.71 70.1712 254.154 68.4964 254.291 66.4912ZM292.504 74.1475V46.0176H302.348V83H293.085L292.504 74.1475ZM293.598 66.5596L296.503 66.4912C296.503 68.9521 296.218 71.2422 295.648 73.3613C295.079 75.4577 294.224 77.2806 293.085 78.8301C291.946 80.3568 290.51 81.5531 288.778 82.4189C287.047 83.262 285.007 83.6836 282.66 83.6836C280.86 83.6836 279.197 83.4329 277.67 82.9316C276.166 82.4076 274.867 81.5986 273.773 80.5049C272.702 79.3883 271.859 77.9642 271.244 76.2324C270.652 74.4779 270.355 72.3701 270.355 69.9092V46.0176H280.199V69.9775C280.199 71.0713 280.325 71.9941 280.575 72.7461C280.849 73.498 281.225 74.1133 281.703 74.5918C282.182 75.0703 282.74 75.4121 283.378 75.6172C284.039 75.8223 284.768 75.9248 285.565 75.9248C287.593 75.9248 289.188 75.5146 290.351 74.6943C291.535 73.874 292.367 72.7575 292.846 71.3447C293.347 69.9092 293.598 68.3141 293.598 66.5596ZM309.867 30.5H319.711V74.5234L318.72 83H309.867V30.5ZM343.124 64.1328V64.8506C343.124 67.6077 342.828 70.137 342.235 72.4385C341.666 74.7399 340.777 76.7337 339.569 78.4199C338.362 80.0833 336.858 81.3822 335.058 82.3164C333.28 83.2279 331.184 83.6836 328.769 83.6836C326.513 83.6836 324.553 83.2279 322.89 82.3164C321.249 81.4049 319.87 80.1175 318.754 78.4541C317.637 76.7907 316.737 74.8424 316.054 72.6094C315.37 70.3763 314.857 67.9382 314.516 65.2949V63.7227C314.857 61.0794 315.37 58.6413 316.054 56.4082C316.737 54.1751 317.637 52.2269 318.754 50.5635C319.87 48.9001 321.249 47.6126 322.89 46.7012C324.53 45.7897 326.467 45.334 328.7 45.334C331.138 45.334 333.257 45.8011 335.058 46.7354C336.881 47.6468 338.384 48.9456 339.569 50.6318C340.777 52.2952 341.666 54.2777 342.235 56.5791C342.828 58.8577 343.124 61.3757 343.124 64.1328ZM333.28 64.8506V64.1328C333.28 62.6289 333.166 61.2161 332.938 59.8945C332.733 58.5501 332.369 57.3766 331.845 56.374C331.321 55.3486 330.603 54.5397 329.691 53.9473C328.803 53.3548 327.652 53.0586 326.239 53.0586C324.895 53.0586 323.756 53.2865 322.821 53.7422C321.887 54.1979 321.112 54.8359 320.497 55.6562C319.905 56.4766 319.46 57.4564 319.164 58.5957C318.868 59.7122 318.686 60.9427 318.617 62.2871V66.7646C318.686 68.5648 318.982 70.1598 319.506 71.5498C320.053 72.917 320.873 73.9993 321.967 74.7969C323.083 75.5716 324.53 75.959 326.308 75.959C327.698 75.959 328.848 75.6855 329.76 75.1387C330.671 74.5918 331.378 73.8171 331.879 72.8145C332.403 71.8118 332.768 70.6383 332.973 69.2939C333.178 67.9268 333.28 66.4456 333.28 64.8506ZM369.203 74.6602V58.1855C369.203 57.0007 369.009 55.9867 368.622 55.1436C368.235 54.2777 367.631 53.6055 366.811 53.127C366.013 52.6484 364.976 52.4092 363.7 52.4092C362.606 52.4092 361.661 52.6029 360.863 52.9902C360.066 53.3548 359.451 53.8903 359.018 54.5967C358.585 55.2803 358.368 56.0892 358.368 57.0234H348.524C348.524 55.4512 348.889 53.9587 349.618 52.5459C350.347 51.1331 351.407 49.8913 352.797 48.8203C354.187 47.7266 355.839 46.8721 357.753 46.2568C359.69 45.6416 361.854 45.334 364.247 45.334C367.118 45.334 369.67 45.8125 371.903 46.7695C374.136 47.7266 375.891 49.1621 377.167 51.0762C378.466 52.9902 379.115 55.3828 379.115 58.2539V74.0791C379.115 76.1071 379.241 77.7705 379.491 79.0693C379.742 80.3454 380.106 81.4619 380.585 82.4189V83H370.639C370.16 81.9974 369.796 80.7441 369.545 79.2402C369.317 77.7135 369.203 76.1868 369.203 74.6602ZM370.502 60.4756L370.57 66.0469H365.067C363.769 66.0469 362.641 66.195 361.684 66.4912C360.727 66.7874 359.94 67.209 359.325 67.7559C358.71 68.2799 358.254 68.8952 357.958 69.6016C357.685 70.3079 357.548 71.0827 357.548 71.9258C357.548 72.7689 357.742 73.5322 358.129 74.2158C358.516 74.8766 359.075 75.4007 359.804 75.7881C360.533 76.1527 361.387 76.335 362.367 76.335C363.848 76.335 365.136 76.0387 366.229 75.4463C367.323 74.8538 368.166 74.1247 368.759 73.2588C369.374 72.3929 369.693 71.5726 369.716 70.7979L372.313 74.9678C371.949 75.902 371.448 76.8704 370.81 77.873C370.194 78.8757 369.408 79.8213 368.451 80.71C367.494 81.5758 366.343 82.2936 364.999 82.8633C363.655 83.4102 362.06 83.6836 360.214 83.6836C357.867 83.6836 355.736 83.2165 353.822 82.2822C351.931 81.3252 350.427 80.015 349.311 78.3516C348.217 76.6654 347.67 74.7513 347.67 72.6094C347.67 70.6725 348.035 68.9521 348.764 67.4482C349.493 65.9443 350.564 64.6797 351.977 63.6543C353.412 62.6061 355.201 61.82 357.343 61.2959C359.485 60.749 361.968 60.4756 364.794 60.4756H370.502ZM265.946 115.234V165H255.692L235.697 131.641V165H225.443V115.234H235.697L255.727 148.628V115.234H265.946ZM291.273 165.684C288.402 165.684 285.827 165.228 283.549 164.316C281.27 163.382 279.333 162.095 277.738 160.454C276.166 158.813 274.958 156.911 274.115 154.746C273.272 152.559 272.851 150.234 272.851 147.773V146.406C272.851 143.604 273.249 141.04 274.047 138.716C274.844 136.392 275.984 134.375 277.465 132.666C278.969 130.957 280.792 129.647 282.934 128.735C285.076 127.801 287.491 127.334 290.18 127.334C292.8 127.334 295.124 127.767 297.152 128.633C299.18 129.499 300.878 130.729 302.245 132.324C303.635 133.919 304.683 135.833 305.39 138.066C306.096 140.277 306.449 142.738 306.449 145.449V149.551H277.055V142.988H296.776V142.236C296.776 140.869 296.526 139.65 296.024 138.579C295.546 137.485 294.817 136.619 293.837 135.981C292.857 135.343 291.604 135.024 290.077 135.024C288.778 135.024 287.662 135.309 286.728 135.879C285.793 136.449 285.03 137.246 284.438 138.271C283.868 139.297 283.435 140.505 283.139 141.895C282.865 143.262 282.729 144.766 282.729 146.406V147.773C282.729 149.255 282.934 150.622 283.344 151.875C283.777 153.128 284.381 154.211 285.155 155.122C285.953 156.034 286.91 156.74 288.026 157.241C289.166 157.743 290.453 157.993 291.889 157.993C293.666 157.993 295.318 157.651 296.845 156.968C298.394 156.261 299.727 155.202 300.844 153.789L305.629 158.984C304.854 160.101 303.795 161.172 302.45 162.197C301.129 163.223 299.534 164.066 297.665 164.727C295.797 165.365 293.666 165.684 291.273 165.684ZM322.616 155.43L330.307 128.018H336.562L334.545 138.784L326.854 165H321.625L322.616 155.43ZM318.72 128.018L324.223 155.396L324.735 165H318.583L309.218 128.018H318.72ZM343.603 154.951L348.969 128.018H358.505L349.14 165H343.021L343.603 154.951ZM337.416 128.018L345.072 155.225L346.132 165H340.868L333.178 138.818L331.229 128.018H337.416ZM383.456 154.78C383.456 154.074 383.251 153.436 382.841 152.866C382.431 152.297 381.667 151.772 380.551 151.294C379.457 150.793 377.873 150.337 375.8 149.927C373.931 149.517 372.188 149.004 370.57 148.389C368.975 147.751 367.585 146.987 366.4 146.099C365.238 145.21 364.327 144.162 363.666 142.954C363.005 141.724 362.675 140.322 362.675 138.75C362.675 137.201 363.005 135.742 363.666 134.375C364.35 133.008 365.318 131.8 366.571 130.752C367.847 129.681 369.397 128.849 371.22 128.257C373.065 127.642 375.139 127.334 377.44 127.334C380.653 127.334 383.41 127.847 385.712 128.872C388.036 129.897 389.813 131.31 391.044 133.11C392.297 134.888 392.924 136.916 392.924 139.194H383.08C383.08 138.237 382.875 137.383 382.465 136.631C382.077 135.856 381.462 135.252 380.619 134.819C379.799 134.364 378.728 134.136 377.406 134.136C376.312 134.136 375.367 134.329 374.569 134.717C373.772 135.081 373.157 135.583 372.724 136.221C372.313 136.836 372.108 137.52 372.108 138.271C372.108 138.841 372.222 139.354 372.45 139.81C372.701 140.243 373.1 140.641 373.646 141.006C374.193 141.37 374.9 141.712 375.766 142.031C376.654 142.327 377.748 142.601 379.047 142.852C381.713 143.398 384.094 144.116 386.19 145.005C388.287 145.871 389.95 147.056 391.181 148.56C392.411 150.041 393.026 151.989 393.026 154.404C393.026 156.045 392.662 157.549 391.933 158.916C391.203 160.283 390.155 161.479 388.788 162.505C387.421 163.507 385.78 164.294 383.866 164.863C381.975 165.41 379.844 165.684 377.475 165.684C374.034 165.684 371.117 165.068 368.725 163.838C366.355 162.607 364.555 161.047 363.324 159.155C362.117 157.241 361.513 155.282 361.513 153.276H370.844C370.889 154.621 371.231 155.703 371.869 156.523C372.53 157.344 373.362 157.936 374.364 158.301C375.39 158.665 376.495 158.848 377.68 158.848C378.956 158.848 380.015 158.677 380.858 158.335C381.701 157.97 382.34 157.492 382.772 156.899C383.228 156.284 383.456 155.578 383.456 154.78Z" fill="black"/>
</svg>
